<?xml version="1.0" encoding="UTF-8" standalone="no"?>
<!-- Created with Inkscape (http://www.inkscape.org/) -->

<svg
   xmlns:dc="http://purl.org/dc/elements/1.1/"
   xmlns:cc="http://creativecommons.org/ns#"
   xmlns:rdf="http://www.w3.org/1999/02/22-rdf-syntax-ns#"
   xmlns:svg="http://www.w3.org/2000/svg"
   xmlns="http://www.w3.org/2000/svg"
   xmlns:sodipodi="http://sodipodi.sourceforge.net/DTD/sodipodi-0.dtd"
   xmlns:inkscape="http://www.inkscape.org/namespaces/inkscape"
   width="744.09448819"
   height="1052.3622047"
   id="svg2"
   version="1.1"
   inkscape:version="0.48.4 r9939"
   sodipodi:docname="New document 1">
  <defs
     id="defs4" />
  <sodipodi:namedview
     id="base"
     pagecolor="#ffffff"
     bordercolor="#666666"
     borderopacity="1.0"
     inkscape:pageopacity="0.0"
     inkscape:pageshadow="2"
     inkscape:zoom="1"
     inkscape:cx="612.2194"
     inkscape:cy="763.74021"
     inkscape:document-units="px"
     inkscape:current-layer="layer1"
     showgrid="false"
     inkscape:window-width="1920"
     inkscape:window-height="1025"
     inkscape:window-x="1278"
     inkscape:window-y="-3"
     inkscape:window-maximized="1" />
  <metadata
     id="metadata7">
    <rdf:RDF>
      <cc:Work
         rdf:about="">
        <dc:format>image/svg+xml</dc:format>
        <dc:type
           rdf:resource="http://purl.org/dc/dcmitype/StillImage" />
        <dc:title></dc:title>
      </cc:Work>
    </rdf:RDF>
  </metadata>
  <g
     inkscape:label="Layer 1"
     inkscape:groupmode="layer"
     id="layer1">
    <path
       style="fill:none;stroke:#000000;stroke-width:1px;stroke-linecap:butt;stroke-linejoin:miter;stroke-opacity:1"
       d="M 222.85715,554.50503 C 163.38736,500.13739 92.408401,482.05668 117.55114,430.27461 c 7.24416,21.65672 15.40993,21.99019 21.91018,23.03101 -25.43169,-36.11236 -21.20061,-47.59387 -19.6405,-56.01564 5.91366,8.36806 -0.36456,10.65034 19.3514,21.52183 -36.69357,-49.73465 34.84138,-81.86308 8.37839,-115.352 29.64708,9.50331 19.3434,19.11418 30.05653,36.65237 11.07899,-47.41615 -38.59726,-97.47402 -36.35159,-112.41089 1.32463,-8.81068 34.32051,54.50837 65.03017,45.80375 9.17499,2.88431 -32.56072,-100.03813 -22.02812,-97.05122 14.36782,4.07453 41.46195,45.47273 65.42479,78.85421 14.09738,19.63837 22.5993,-108.73095 33.96968,-88.74787 15.1845,26.68631 15.56758,78.0011 19.49079,106.80203 33.70586,-15.49777 51.03769,6.84927 41,-57.14287 29.69326,14.33892 7.6846,54.98025 16.45159,84.67207 5.26113,17.81823 21.53387,-48.07814 22.86668,-28.62934 2.33118,34.01726 7.7433,59.06527 -3.95377,105.97471 -3.90016,15.64103 42.73792,-72.84286 43.03557,-55.31446 2.36556,139.30724 -100.99202,228.96784 -146.4715,231.93988 -28.72012,1.87683 -45.01967,7.13441 -53.21428,-0.35715 z"
       id="path2987"
       inkscape:connector-curvature="0"
       sodipodi:nodetypes="sccccccscsssccssssss" />
    <text
       xml:space="preserve"
       style="font-size:77.91176605px;font-style:normal;font-weight:normal;line-height:91.00000262%;letter-spacing:0px;word-spacing:0px;fill:#000000;fill-opacity:1;stroke:none;font-family:Sans"
       x="271.6788"
       y="430.73984"
       id="text2989"
       sodipodi:linespacing="91.000003%"><tspan
         sodipodi:role="line"
         id="tspan2991"
         x="271.6788"
         y="430.73984"
         style="font-size:140.24118042px;font-weight:bold;line-height:91.00000262%;-inkscape-font-specification:Sans Bold Italic">Fire</tspan><tspan
         sodipodi:role="line"
         x="271.6788"
         y="558.35931"
         id="tspan2993"
         style="font-size:140.24118042px;font-style:italic;font-weight:bold;line-height:91.00000262%;-inkscape-font-specification:Sans Bold Italic">TPL</tspan></text>
  </g>
</svg>
